<svg width="108" height="17" viewBox="0 0 108 17" fill="none" xmlns="http://www.w3.org/2000/svg">
<path d="M13.0767 9.14228L9.32426 15.569L5.57183 9.14228H13.0767ZM14.082 8.56787H4.5625L9.32426 16.7058L14.082 8.56787Z" fill="#263238"/>
<path d="M19.6007 1.14878L23.3531 7.57551H15.8482L19.6007 1.14878ZM19.6007 0L14.8389 8.13785H24.3624L19.6007 0Z" fill="#263238"/>
<path d="M0 0L3.99259 7.19795L8.35551 0.180742L0 0Z" fill="#4CAF4F"/>
<path d="M9.324 0.630615L13.5119 7.7884H5.12793L9.324 0.630615Z" fill="#4CAF4F"/>
<path d="M14.5906 9.35107L18.7827 16.7057H10.1992L14.4604 9.35107H14.5906Z" fill="#4CAF4F"/>
<path d="M15.498 8.90527L19.6005 16.1474L23.7599 8.90527H15.498Z" fill="#4CAF4F"/>
<path d="M41.7871 1.16187V15.3364H39.1986L33.0318 6.41501H32.928V15.3364H29.9312V1.16187H32.5612L38.6795 10.0763H38.8041V1.16187H41.7871Z" fill="#263238"/>
<path d="M49.0525 15.544C47.959 15.544 47.0177 15.3225 46.2287 14.8796C45.4443 14.432 44.8399 13.7999 44.4154 12.9832C43.9909 12.1619 43.7786 11.1906 43.7786 10.0694C43.7786 8.97584 43.9909 8.01611 44.4154 7.19018C44.8399 6.36426 45.4374 5.72059 46.208 5.25918C46.9831 4.79777 47.8921 4.56707 48.9349 4.56707C49.6362 4.56707 50.2891 4.68011 50.8936 4.90621C51.5026 5.12768 52.0333 5.4622 52.4854 5.90977C52.9422 6.35734 53.2975 6.92026 53.5513 7.59853C53.8051 8.27219 53.932 9.0612 53.932 9.96556V10.7753H44.9552V8.94815H51.1566C51.1566 8.52366 51.0643 8.14761 50.8797 7.82001C50.6952 7.49241 50.4391 7.23632 50.1115 7.05176C49.7885 6.86258 49.4124 6.76799 48.9833 6.76799C48.5358 6.76799 48.139 6.87181 47.7929 7.07944C47.4515 7.28246 47.1838 7.557 46.99 7.90306C46.7963 8.2445 46.6971 8.62517 46.6924 9.04505V10.7823C46.6924 11.3083 46.7893 11.7628 46.9831 12.1457C47.1815 12.5287 47.4607 12.824 47.8206 13.0316C48.1805 13.2393 48.6073 13.3431 49.101 13.3431C49.4286 13.3431 49.7285 13.2969 50.0007 13.2047C50.273 13.1124 50.506 12.974 50.6998 12.7894C50.8936 12.6048 51.0412 12.3787 51.1427 12.1111L53.8697 12.2911C53.7312 12.9463 53.4475 13.5184 53.0184 14.0075C52.5939 14.492 52.0448 14.8703 51.3711 15.1426C50.7021 15.4102 49.9292 15.544 49.0525 15.544Z" fill="#263238"/>
<path d="M58.1296 4.70549L60.0814 8.42215L62.0816 4.70549H65.1061L62.0262 10.0209L65.1892 15.3364H62.1785L60.0814 11.6612L58.0189 15.3364H54.9736L58.1296 10.0209L55.0843 4.70549H58.1296Z" fill="#263238"/>
<path d="M71.2798 15.544C70.1909 15.544 69.2542 15.3133 68.4698 14.8519C67.69 14.3859 67.0902 13.7399 66.6703 12.914C66.2551 12.088 66.0474 11.1375 66.0474 10.0625C66.0474 8.97353 66.2574 8.01841 66.6772 7.1971C67.1017 6.37118 67.7039 5.72751 68.4837 5.2661C69.2634 4.80008 70.1909 4.56707 71.266 4.56707C72.1934 4.56707 73.0055 4.73548 73.7022 5.07231C74.3989 5.40914 74.9503 5.88209 75.3564 6.49115C75.7624 7.10021 75.9862 7.81539 76.0277 8.6367H73.2454C73.167 8.10608 72.9593 7.67928 72.6225 7.35629C72.2903 7.02869 71.8543 6.86489 71.3144 6.86489C70.8576 6.86489 70.4585 6.98947 70.1171 7.23863C69.7802 7.48318 69.5172 7.84077 69.328 8.31141C69.1389 8.78205 69.0443 9.35189 69.0443 10.0209C69.0443 10.6992 69.1366 11.276 69.3211 11.7512C69.5103 12.2265 69.7756 12.5887 70.1171 12.8378C70.4585 13.087 70.8576 13.2116 71.3144 13.2116C71.6512 13.2116 71.9535 13.1424 72.2211 13.0039C72.4933 12.8655 72.7171 12.6648 72.8924 12.4018C73.0724 12.1342 73.19 11.8135 73.2454 11.4398H76.0277C75.9816 12.2518 75.7601 12.967 75.3633 13.5853C74.9711 14.199 74.4289 14.6789 73.7368 15.0249C73.0447 15.371 72.2257 15.544 71.2798 15.544Z" fill="#263238"/>
<path d="M82.7603 15.544C81.6667 15.544 80.7254 15.3225 79.9364 14.8796C79.152 14.432 78.5476 13.7999 78.1231 12.9832C77.6986 12.1619 77.4863 11.1906 77.4863 10.0694C77.4863 8.97584 77.6986 8.01611 78.1231 7.19018C78.5476 6.36426 79.1451 5.72059 79.9157 5.25918C80.6908 4.79777 81.5998 4.56707 82.6426 4.56707C83.3439 4.56707 83.9968 4.68011 84.6013 4.90621C85.2103 5.12768 85.741 5.4622 86.1931 5.90977C86.6499 6.35734 87.0052 6.92026 87.259 7.59853C87.5128 8.27219 87.6397 9.0612 87.6397 9.96556V10.7753H78.6629V8.94815H84.8643C84.8643 8.52366 84.772 8.14761 84.5874 7.82001C84.4029 7.49241 84.1468 7.23632 83.8192 7.05176C83.4962 6.86258 83.1202 6.76799 82.691 6.76799C82.2435 6.76799 81.8467 6.87181 81.5006 7.07944C81.1592 7.28246 80.8915 7.557 80.6978 7.90306C80.504 8.2445 80.4048 8.62517 80.4001 9.04505V10.7823C80.4001 11.3083 80.497 11.7628 80.6908 12.1457C80.8892 12.5287 81.1684 12.824 81.5283 13.0316C81.8882 13.2393 82.315 13.3431 82.8087 13.3431C83.1363 13.3431 83.4362 13.2969 83.7085 13.2047C83.9807 13.1124 84.2137 12.974 84.4075 12.7894C84.6013 12.6048 84.7489 12.3787 84.8504 12.1111L87.5774 12.2911C87.4389 12.9463 87.1552 13.5184 86.7261 14.0075C86.3016 14.492 85.7525 14.8703 85.0788 15.1426C84.4098 15.4102 83.6369 15.544 82.7603 15.544Z" fill="#263238"/>
<path d="M92.5121 9.19039V15.3364H89.5637V4.70549H92.3737V6.58112H92.4983C92.7336 5.96283 93.1281 5.47374 93.6818 5.11384C94.2355 4.74933 94.9069 4.56707 95.6959 4.56707C96.4341 4.56707 97.0778 4.72856 97.6269 5.05155C98.176 5.37454 98.6028 5.83595 98.9073 6.43578C99.2118 7.031 99.3641 7.74157 99.3641 8.56749V15.3364H96.4157V9.0935C96.4203 8.44291 96.2542 7.93536 95.9174 7.57085C95.5805 7.20172 95.1168 7.01716 94.5262 7.01716C94.1294 7.01716 93.7787 7.10252 93.4742 7.27324C93.1743 7.44396 92.939 7.69312 92.7682 8.02072C92.6021 8.34371 92.5168 8.7336 92.5121 9.19039Z" fill="#263238"/>
<path d="M107.342 4.70549V6.92026H100.94V4.70549H107.342ZM102.394 2.15851H105.342V12.0696C105.342 12.3418 105.384 12.5541 105.467 12.7063C105.55 12.854 105.665 12.9578 105.813 13.0178C105.965 13.0778 106.14 13.1078 106.339 13.1078C106.477 13.1078 106.616 13.0962 106.754 13.0732C106.893 13.0455 106.999 13.0247 107.073 13.0109L107.536 15.2049C107.389 15.251 107.181 15.3041 106.913 15.3641C106.646 15.4287 106.32 15.4679 105.937 15.4817C105.227 15.5094 104.604 15.4148 104.069 15.1979C103.538 14.9811 103.125 14.6443 102.83 14.1875C102.535 13.7307 102.389 13.1539 102.394 12.4572V2.15851Z" fill="#263238"/>
</svg>
